<svg width="200" height="200" viewBox="0 0 200 200" fill="none" xmlns="http://www.w3.org/2000/svg">
<rect width="200" height="200" rx="43.8116" fill="#56E1E9"/>
<path d="M75.2933 123.467C86.3759 125.879 93.0288 127.418 97.842 127.974C98.2088 128.019 98.5645 128.035 98.9147 128.046C96.4692 125.373 94.9685 121.821 94.9685 117.914C94.9685 112.806 97.5196 108.299 101.41 105.581C101.271 105.553 101.143 105.514 101.004 105.492C92.2118 103.952 83.5191 102.263 76.6438 99.1779C66.5783 94.6537 62.1709 82.4316 67.6121 72.8329C68.9349 70.5041 70.7468 68.4643 73.0089 66.9636C81.0402 60.5719 99.6372 59.7604 111.793 62.8396C112.337 62.9507 112.876 63.0619 113.415 63.1731C123.209 64.9016 135.475 76.3289 143.59 68.4643C145.385 66.7246 146.53 64.4069 146.913 61.9392C148.892 49.3836 131.195 44.9094 119.907 41.8025C116.472 41.0855 113.054 40.3685 109.619 39.6459C94.824 37.6728 77.8555 39.1957 65.6335 44.3814C23.8819 60.9943 28.3394 116.408 74.6541 123.35C74.8653 123.389 75.082 123.428 75.2933 123.467Z" fill="#1E1451"/>
<path d="M125.347 76.6441C125.136 76.6052 124.919 76.5663 124.708 76.5274C113.626 74.1152 106.973 72.5757 102.159 72.0199C87.6253 70.3469 84.5851 91.9787 98.9914 94.5076C107.784 96.0472 116.477 97.7369 123.352 100.822C133.418 105.346 137.825 117.568 132.384 127.167C131.061 129.495 129.249 131.535 126.987 133.036C118.956 139.428 100.359 140.239 88.2033 137.16C87.6587 137.049 87.1195 136.938 86.5804 136.826C76.7872 135.098 64.5208 123.671 56.4061 131.535C54.6109 133.275 53.4659 135.593 53.0824 138.06C51.1038 150.616 68.8004 155.09 80.0887 158.197C83.5235 158.914 86.9417 159.631 90.3765 160.354C105.172 162.327 122.14 160.804 134.362 155.618C176.12 139.011 171.662 83.5972 125.347 76.6497V76.6441Z" fill="#1E1451"/>
<path d="M111.796 132.669C119.327 132.669 125.435 126.561 125.435 119.03C125.435 111.499 119.327 105.391 111.796 105.391C104.264 105.391 98.1562 111.499 98.1562 119.03C98.1562 126.561 104.264 132.669 111.796 132.669Z" fill="#1E1451"/>
</svg>
